<svg xmlns="http://www.w3.org/2000/svg" viewBox="0 0 180 180" role="img" aria-label="青年卡皮巴拉">
  <rect width="180" height="180" rx="38" fill="#fff4d8"/>
  <ellipse cx="100" cy="101" rx="62" ry="42" fill="#a86f3f" stroke="#6b4226" stroke-width="7"/>
  <circle cx="57" cy="84" r="21" fill="#a86f3f" stroke="#6b4226" stroke-width="6"/>
  <circle cx="118" cy="63" r="10" fill="#7b4b2b" stroke="#6b4226" stroke-width="5"/>
  <circle cx="67" cy="66" r="9" fill="#7b4b2b" stroke="#6b4226" stroke-width="5"/>
  <path d="M66 85c7 4 13 4 19 0" fill="none" stroke="#3d2a1f" stroke-width="5" stroke-linecap="round"/>
  <circle cx="101" cy="88" r="4.5" fill="#3d2a1f"/>
  <ellipse cx="84" cy="103" rx="10" ry="5.5" fill="#6b4226"/>
  <path d="M75 117c12 8 28 8 41-1" fill="none" stroke="#6b4226" stroke-width="5" stroke-linecap="round"/>
  <path d="M55 139h26M117 141h27" stroke="#6b4226" stroke-width="9" stroke-linecap="round"/>
  <path d="M88 45l10 15 17 2-12 12 3 17-18-8-17 8 3-17-12-12 17-2z" fill="#f3a51e" stroke="#6b4226" stroke-width="5" stroke-linejoin="round"/>
  <text x="90" y="166" text-anchor="middle" font-family="Arial, sans-serif" font-size="13" font-weight="700" fill="#8b5a34">751-1000</text>
</svg>
