<svg xmlns="http://www.w3.org/2000/svg" viewBox="0 0 180 180" role="img" aria-label="破壳卡皮巴拉">
  <rect width="180" height="180" rx="38" fill="#fff4d8"/>
  <path d="M42 92c0-34 21-62 48-62s48 28 48 62c0 8-2 16-5 24H47c-3-8-5-16-5-24z" fill="#f7dba9" stroke="#6b4226" stroke-width="7"/>
  <path d="M42 92l18-10 14 14 16-18 14 18 17-14 17 10" fill="none" stroke="#6b4226" stroke-width="6" stroke-linejoin="round"/>
  <ellipse cx="91" cy="102" rx="36" ry="28" fill="#c9935a" stroke="#6b4226" stroke-width="6"/>
  <circle cx="78" cy="100" r="4.5" fill="#3d2a1f"/>
  <circle cx="104" cy="100" r="4.5" fill="#3d2a1f"/>
  <ellipse cx="91" cy="112" rx="8" ry="5" fill="#6b4226"/>
  <path d="M64 130c17 14 37 15 55 0" fill="none" stroke="#6b4226" stroke-width="6" stroke-linecap="round"/>
  <path d="M32 124h116l-12 29H44z" fill="#fffaf1" stroke="#6b4226" stroke-width="7" stroke-linejoin="round"/>
  <text x="90" y="166" text-anchor="middle" font-family="Arial, sans-serif" font-size="13" font-weight="700" fill="#8b5a34">151-300</text>
</svg>
